<?xml version="1.0" encoding="UTF-8"?>
<svg version="1.1" viewBox="0 0 2000 2000" width="500" height="500" xmlns="http://www.w3.org/2000/svg">
<path transform="translate(1301,473)" d="m0 0h13l32 2 22 3 21 5 27 9 16 7 17 9 18 12 11 8 16 13 8 8 8 7 11 12 12 15 13 18 12 18 1 7-3 3-5-1-14-8-17-9-23-9-29-9-26-7-13-2h-8v3l23 12 28 14 19 12 16 11 13 11 8 7 25 25 9 11 13 18 12 20 13 26 14 37 1 8-3 4-7-1-20-14-16-10-23-12-23-11-17-9-22-9 1 5 9 12 8 9 12 16 18 27 10 21 6 12 1 7-6 5-5-2-18-13-30-20-21-12-17-9-10-3v7l11 49 6 40 4 40 3 69 1 43 6-5 8-10 24-26 30-30 8-7 14-12 14-11 18-13 30-18 25-13 27-11 33-11 8-2 7 1 3 2-1 6-9 10-8 8-7 8-13 17-13 19-12 19-15 26-13 23-15 28-9 19-6 16-3 17-1 11v11l3 25 6 27 12 36 18 50 7 25 1 6v8l-6 11-9 10-7 8-13 12-14 11-16 12-18 11-14 8-17 8-18 6-12 2h-8l-12-3-12-7-11-9-15-14-18-18-5-2-10 17-12 17-15 15-15 11-18 10-23 11-26 10-29 9-32 8-36 7-41 6-31 3-49 3-23 1h-65l-74-3-30-2-35-4-32-5-31-6-35-9-30-9-20-7-25-11-19-9-15-9-17-12-12-11-22-22-3-1-4 4h-2l-2 4-21 21-14 11-13 9-13 6-12 2-10-2-12-5-16-9-13-10-15-13-15-15-9-11-8-10-9-14-6-12-3-9v-13l4-34 9-57 5-42 1-12v-21l-3-29-3-19-7-29-7-18-8-16-9-16-11-16-10-13-8-10-12-14-14-15-12-12-8-7-5-7 3-5 1-1 13 1 18 4 19 5 18 7 25 12 22 14 17 13 14 11 15 13 30 28 8 8 7 8 9 10 12 14 9 11 11 13 11 14 11 13 3 2v-103l3-46 8-79 3-23-1-7-9-10-11-8-12-5h-40l-5-3-1-1v-9l4-11 8-11 9-8 15-8 12-3 10-2 6-2-4-11-6-10-9-12-23-23-2-3 1-6 3-3h9l24 5 20 8 25 13 7 3 1-11 4-19 6-16 7-12 11-13 9-7 2-1h6l4 4v7l-2 12v20l4 19 7 21v2l22-5 36-12 33-12 31-12 33-13 28-12 34-16 21-10 44-24 22-14 36-24 19-12 19-11 23-12 29-13 26-10 27-8 43-10 21-4 26-3 24-2z" fill="#B2F05A"/>
<path transform="translate(1301,473)" d="m0 0h13l32 2 22 3 21 5 27 9 16 7 17 9 18 12 11 8 16 13 8 8 8 7 11 12 12 15 13 18 12 18 1 7-3 3-5-1-14-8-17-9-23-9-29-9-26-7-13-2h-8v3l23 12 28 14 19 12 16 11 13 11 8 7 25 25 9 11 13 18 12 20 13 26 14 37 1 8-3 4-7-1-20-14-16-10-23-12-23-11-17-9-22-9 1 5 9 12 8 9 12 16 18 27 10 21 6 12 1 7-6 5-5-2-18-13-30-20-21-12-17-9-10-3v7l11 49 6 40 4 40 3 69 1 43 6-5 8-10 24-26 30-30 8-7 14-12 14-11 18-13 30-18 25-13 27-11 33-11 8-2 7 1 3 2-1 6-9 10-8 8-7 8-13 17-13 19-12 19-15 26-13 23-15 28-9 19-6 16-3 17-1 11v11l3 25 6 27 12 36 18 50 7 25 1 6v8l-6 11-9 10-7 8-13 12-14 11-16 12-18 11-14 8-17 8-18 6-12 2h-8l-12-3-12-7-11-9-15-14-18-18-5-2-10 17-12 17-15 15-15 11-18 10-23 11-26 10-29 9-32 8-36 7-41 6-31 3-49 3-23 1h-65l-74-3-30-2-35-4-32-5-31-6-35-9-30-9-20-7-25-11-19-9-15-9-17-12-12-11-22-22-3-1-4 4h-2l-2 4-21 21-14 11-13 9-13 6-12 2-10-2-12-5-16-9-13-10-15-13-15-15-9-11-8-10-9-14-6-12-3-9v-13l4-34 9-57 5-42 1-12v-21l-3-29-3-19-7-29-7-18-8-16-9-16-11-16-10-13-8-10-12-14-14-15-12-12-8-7-5-7 3-5 1-1 13 1 18 4 19 5 18 7 25 12 22 14 17 13 14 11 15 13 30 28 8 8 7 8 9 10 12 14 9 11 11 13 11 14 11 13 3 2v-103l3-46 8-79 3-23-1-7-9-10-11-8-12-5h-40l-5-3-1-1v-9l4-11 8-11 9-8 15-8 12-3 10-2 6-2-4-11-6-10-9-12-23-23-2-3 1-6 3-3h9l24 5 20 8 25 13 7 3 1-11 4-19 6-16 7-12 11-13 9-7 2-1h6l4 4v7l-2 12v20l4 19 7 21v2l22-5 36-12 33-12 31-12 33-13 28-12 34-16 21-10 44-24 22-14 36-24 19-12 19-11 23-12 29-13 26-10 27-8 43-10 21-4 26-3 24-2zm-242 236 3 3 19 9 19 12 18 14 12 11 13 13 11 14 12 17 9 17 2 6-1 5-3 2-6-1-14-7-38-15-35-12-32-9-35-8-36-6-29-3-24-1h-31l-20 1-26 4-41 9-31 8-27 9-28 11-29 14-18 11-16 12-10 9-8 7-7 8v3h12l3 1 2 4-1 6-6 15-6 18-14 49-16 63-11 47-8 33-1 33v55l1 37 2 31 3 27 4 19 5 11 9 13 14 15 7 7 14 11 13 9 21 12 16 8 28 11 30 10 36 9 41 8 54 7 42 4 28 2 28 1h93l35-2 40-4 36-5 35-6 38-9 31-9 26-10 25-12 14-8 14-10 12-11 8-8 7-10 10-19 9-24 9-31 8-37 6-34 6-48 4-39 1-17-14-45-21-64-12-35-15-42-11-28-5-11v-6l2-3h8l16 6 8 4-1-7-10-36-13-38-10-24-5-8-40-12-48-12-38-8-46-8-49-7-39-4-27-2z" fill="#020302"/>
<path transform="translate(1281,486)" d="m0 0h41l25 2 30 5 25 7 26 11 21 12 11 7 14 11 12 11 8 7 10 10 9 11 7 8 5 9-9-2-22-8-25-7-31-6-28-4-25-2h-21l-4 3v6l6 4 29 10 33 14 32 16 15 9 11 7 14 10 10 8 13 11 12 12 9 11 10 11 12 18 6 11 8 15 9 20 2 6-1 4-11-6-15-8-38-19-72-33-7-1-3 4v5l9 10 11 11 7 8 9 10 7 10 8 10 9 13 13 20 6 12-5-2-21-13-26-14-25-12-29-12-30-11-24-8-30-9-30-8-33-8-46-9-43-7-39-5-42-4-63-4h-32l-3 5v5l10 4 21 6 16 6 25 12 18 11 17 13 15 14 15 16 13 18 3 6-5-1-36-14-36-12-29-8-36-8-31-5-39-4-38-1-27 1-30 4-34 7-32 8-24 7-28 10-22 9-16 8-18 10-15 10-13 10-12 11-8 8-9 12-6 10-6 16-1 10 5 2 6-1 7-8 5-5h3l-10 33-10 36-11 43-9 36h-2v-78l4-49 5-44 5-36 2-7 1-5-15-13-8-8-16-10-10-3h-32l1-5 8-10 11-8 13-5 8-1 24-1 4-4-1-9-8-16-10-15-11-13-7-8v-1l9 1 16 6 17 9 9 7 10 9 7 7 3 2 6-1 2-2v-9l-1-5v-25l4-18 5-13 7-10h2l3 28 5 19 4 11v4l-4 3v7l3 3h11l24-6 38-12 40-14 41-16 24-10 32-14 18-8 14-7 23-11 19-10 21-12 17-10 15-10 17-12 14-10 19-12 22-12 27-13 27-11 36-12 27-7 31-6 35-5z" fill="#789F7C"/>
<path transform="translate(768,1245)" d="m0 0 12 2 24 7 25 5 20 3h44l91-7 32-2h15l32 2 63 7 29 2h51l26-2 42-6 18-3h5l-1 7-9 14-20 26-12 14-11 12-18 18-11 9-12 10-15 10-17 10-22 10-25 9-24 6-33 6-39 4h-34l-25-3-25-6-23-7-21-9-22-12-17-13-13-12-8-8-7-8-14-17-9-11-12-16-16-23-10-15-4-8z" fill="#010201"/>
<path transform="translate(1691,891)" d="m0 0 2 1-14 17-12 17-12 19-11 19-14 25-15 28-12 22-9 19-5 17-3 18-1 19 2 20 5 26 6 22 7 21 17 48 8 28 1 5v7l-8 10-24 24-14 11-19 14-20 12-21 11-14 5-8 2h-10l-10-4-13-9-13-12-8-7-8-8-7-8-8-8-1-2 1-9 9-30 4-15 1-2 22-9 21-12 11-9 11-11 11-16 7-15 5-18 2-13v-28l-4-22-8-29-1-5v-22l4-16 6-16 8-16 8-14 12-19 9-12 7-7 19-14 15-10 18-10 23-12 23-10 20-7z" fill="#B1F05A"/>
<path transform="translate(792,976)" d="m0 0 13 1 36 7 37 9 21 7 9 6 8 8 7 9 4 11 5 18 4 22 2 19v19l-3 18-6 20-9 19-8 11-7 7-5 1v2l-16 8-17 7-4 1h-47l-26-3-34-7-12-5-8-8-12-17-7-10-6-12-10-19-9-23-1-4v-8l6-16 5-11 9-15 11-16 10-13 12-14 14-11 19-11z" fill="#FBFBFA"/>
<path transform="translate(1257,981)" d="m0 0 9 1 13 9 13 11 10 9 7 8 9 10 10 14 9 15 5 8 4 10 2 2v9l-3 16-6 20-8 20-5 7-3-1-1 4-9 12-11 15-9 10-10 4-28 6-20 3-11 1h-47l-9-2-22-11-5-2v-2l-5-1-10-8-8-14-5-13-7-25-5-24-2-14v-16l4-20 8-24 6-7 8-10 4-3 43-12 36-8 30-5z" fill="#FBFBFA"/>
<path transform="translate(326,900)" d="m0 0 11 2 26 9 25 12 18 11 20 14 14 11 10 9 5 5 8 13 9 20 14 36 17 51 3 11v18l-5 17-8 24-3 15v13l4 16 6 12 9 11 8 8 12 9 18 11 22 11 7 4 2 6 3 24 4 17 2 6-1 6-13 13-7 8-10 10-11 9-13 10-14 8-4 1-16-8-16-9-16-12-14-12-13-13-11-14-7-10-9-16-3-7v-16l10-61 7-50 3-35v-14l-2-20-5-30-6-26-8-22-12-25-13-22-12-17-11-14-10-11-7-8-3-3v-2h-2l-7-8z" fill="#B1F05A"/>
<path transform="translate(705,889)" d="m0 0 24 3 52 11 48 12 70 19 51 15h4l8-16 9-17h2l-1 109-29-10-24-8 6 15-1 3-13-15-8-7-18-7-27-7-31-7-29-5h-6l-21 10-17 11-11 9-12 14-13 18-11 17-6 10h-1l1-8 10-25 9-16 12-16 17-17 12-9 3-2-16-3-42-5-2-1z" fill="#010201"/>
<path transform="translate(1334,897)" d="m0 0h1l1 9 1 35v33l-1 1-41 3h-6l7 8 7 7 9 11 6 8 6 10 8 16 9 21 2 9-4-5-12-20-8-11-12-14-7-8-8-7-9-8-15-11-5-2-17 1-32 5-34 7-48 13-6 3-9 11-3-1 1-8-11 3-17 5h-4l-2-64-2-36v-11l3 1 10 20 7 13 10-2 40-10 58-13 36-7 78-13z" fill="#010201"/>
<path transform="translate(474,991)" d="m0 0 7 6 7 7 7 8 8 8 9 11 8 9 9 11 11 13 21 27 13 18v103l1 27v24l-6-1-19-10-16-10-13-10-11-11-8-13-4-10-1-6v-13l3-15 12-36 1-5v-19l-6-21-16-47-17-42z" fill="#B0EE5B"/>
<path transform="translate(1538,983)" d="m0 0 1 2-6 11-12 23-6 16-4 17-1 6v15l3 16 8 31 2 11 1 11-1 21-3 15-7 19-7 12-6 8-11 12-13 10-16 9-15 7h-3l1-11 6-33 7-50 5-52 3-40 3-7 8-9 9-11 9-10 7-8 18-20 9-9 1-2h2v-2l6-5z" fill="#B0EF5B"/>
<path transform="translate(1184,999)" d="m0 0h9l12 5 10 9 7 9 6 13 4 16v25l-4 17-7 14-11 12-14 7-4 1h-13l-10-4-7-6-7-10-6-14-3-16v-34l4-16 5-10 6-7 10-7z" fill="#010201"/>
<path transform="translate(781,1256)" d="m0 0 16 4 21 5 19 3 22 2h30l33-2 92-7h25l41 4 57 6 17 1h48l13-1 1 1-1 7-15 5-31 6-43 5-34 2h-48l-33-2-68-7-34-4-74-10h-8l-22 13-4 1-20-30z" fill="#F3F6F2"/>
<path transform="translate(859,997)" d="m0 0h10l10 3 6 4 5 4 6 9 6 12 5 18 2 13v12l-2 12-5 13-5 10-7 8-11 8-9 4h-11l-12-7-9-10-7-11-5-10-4-14-1-7v-14l2-14 5-15 6-10 10-11 12-6z" fill="#010201"/>
<path transform="translate(1390,777)" d="m0 0 9 3 20 9 2 2 6 27 9 45 4 26 3 27 3 52 1 22 1 55-2 1-27-81-15-42-13-35-1-5 11 6 12 7 7-1 1-1v-10l-5-21-14-46-12-36z" fill="#789F7C"/>
<path transform="translate(1007,1369)" d="m0 0h21l27 2 28 4 19 4 21 7 7 3-1 3-24 7-26 5-33 4-21 2h-31l-19-2-29-6-24-8-12-5 1-2 19-7 23-5 29-4z" fill="#D176C7"/>
<path transform="translate(1323,1151)" d="m0 0 1 3-8 16-7 11-11 13-5 4-21 6-23 5-14 2-13 1h-23l-23-2-12-3-12-8-13-10 2-1 25 12 5 2 6 1h47l25-3 26-5 16-5 8-7 14-19 8-11z" fill="#010201"/>
<path transform="translate(716,1154)" d="m0 0 4 5 10 14 9 12 7 6 10 4 34 7 26 3h47l12-4 17-8 8-4 2 1-11 10-14 8-9 3-7 1h-44l-27-2-25-4-14-4-10-8-9-9-9-13-7-14z" fill="#010201"/>
<path transform="translate(1164,1017)" d="m0 0h7l6 4 3 8v16l-3 12-6 9-4 2h-6l-5-5-2-5-1-7v-11l3-13 5-8z" fill="#F4F7F3"/>
<path transform="translate(842,1016)" d="m0 0 8 1 5 6 3 8 1 4v8l-3 12-6 8-4 4h-8l-4-4-3-9v-14l4-15 4-6z" fill="#F5F8F3"/>
<path transform="translate(1201,1313)" d="m0 0 7 1 12 5 11 7-1 4-10 9-11 9-3 3h-3l-3-17v-20z" fill="#F0F5EC"/>
<path transform="translate(1e3 1153)" d="m0 0h2l-2 6-17 33h-2l-4-18v-5l11-8z" fill="#010201"/>
<path transform="translate(1039,1157)" d="m0 0 16 8 4 3-4 22-3-1-9-19-5-12z" fill="#010201"/>
<path transform="translate(421,1311)" d="m0 0 5 5 9 12 6 7v2l3 1 7 8 6 7-4-2-14-14-11-14-7-10z" fill="#789F7C"/>
<path transform="translate(1059,709)" d="m0 0h20l27 2v1h-18l-20-1-1 1 2 2-5-1-5-3z" fill="#789F7C"/>
<path transform="translate(1538,983)" d="m0 0 1 2-6 11-2 2-3-3v-2h2v-2l6-5z" fill="#79A07B"/>
<path transform="translate(699,1061)" d="m0 0h1l1 7-5 9-1-2z" fill="#7DA678"/>
<path transform="translate(474,991)" d="m0 0 7 6 2 3-3 1-1-4h-2l-1 2-2-5z" fill="#7AA17A"/>
<path transform="translate(1342,1062)" d="m0 0 2 2 3 10h-3l-2-6z" fill="#739977"/>
</svg>
